<svg width="1em" height="1em" viewBox="0 0 18 18" fill="none" xmlns="http://www.w3.org/2000/svg">
<g clip-path="url(#clip0_2020_3627)">
<path d="M8.97036 18.0059L8.44755 17.5578C7.72681 16.9543 1.43359 11.5192 1.43359 7.5436C1.43359 3.38117 4.80793 0.00683594 8.97036 0.00683594C13.1328 0.00683594 16.5071 3.38117 16.5071 7.5436C16.5071 11.5192 10.2139 16.9543 9.49615 17.5607L8.97036 18.0059ZM8.97036 1.6365C5.70951 1.6402 3.06699 4.28272 3.0633 7.54356C3.0633 10.0411 6.93512 14.0309 8.97036 15.8571C11.0056 14.0302 14.8774 10.0381 14.8774 7.54356C14.8737 4.28272 12.2312 1.64023 8.97036 1.6365Z" fill="currentColor"/>
<path d="M8.97188 10.5312C7.32193 10.5312 5.98438 9.19361 5.98438 7.54366C5.98438 5.89371 7.32193 4.55615 8.97188 4.55615C10.6218 4.55615 11.9594 5.89371 11.9594 7.54366C11.9594 9.19361 10.6219 10.5312 8.97188 10.5312ZM8.97188 6.04987C8.14691 6.04987 7.47813 6.71865 7.47813 7.54363C7.47813 8.3686 8.14691 9.03738 8.97188 9.03738C9.79686 9.03738 10.4656 8.3686 10.4656 7.54363C10.4656 6.71865 9.79689 6.04987 8.97188 6.04987Z" fill="currentColor"/>
</g>
<defs>
<clipPath id="clip0_2020_3627">
<rect width="1em" height="1em" fill="white"/>
</clipPath>
</defs>
</svg>
