<svg width="1em" height="1em" viewBox="0 0 138 138" fill="none" xmlns="http://www.w3.org/2000/svg">
 
<path d="M28.0312 107.812V103.826C28.0312 102.327 27.4598 100.884 26.4335 99.7934C24.26 97.4819 20.3399 93.3139 17.7265 90.5366C16.036 88.7383 15.0938 86.3621 15.0938 83.8932C15.0938 75.8806 15.0938 57.3174 15.0938 47.4332C15.0938 43.8624 17.9874 40.9688 21.5582 40.9688H21.5668C23.281 40.9688 24.9262 41.6501 26.1381 42.8619C27.3499 44.0738 28.0312 45.719 28.0312 47.4332C28.0312 52.33 28.0312 58.2188 28.0312 58.2188" stroke="currentColor" stroke-width="4" stroke-miterlimit="2" stroke-linecap="round" stroke-linejoin="round"/>
<path d="M109.969 107.812V103.826C109.969 102.327 110.54 100.884 111.567 99.7934C113.74 97.4819 117.66 93.3139 120.273 90.5366C121.964 88.7383 122.906 86.3621 122.906 83.8932C122.906 75.8806 122.906 57.3174 122.906 47.4332C122.906 43.8624 120.013 40.9688 116.442 40.9688H116.433C114.719 40.9688 113.074 41.6501 111.862 42.8619C110.65 44.0738 109.969 45.719 109.969 47.4332C109.969 52.33 109.969 58.2188 109.969 58.2188" stroke="currentColor" stroke-width="4" stroke-miterlimit="2" stroke-linecap="round" stroke-linejoin="round"/>
<path d="M62.5312 121.567V110.93C62.5312 110.105 62.2035 109.311 61.617 108.727C61.0327 108.14 60.2392 107.812 59.4133 107.812C52.4918 107.812 35.9145 107.812 28.9929 107.812C28.1671 107.812 27.3736 108.14 26.7892 108.727C26.2027 109.311 25.875 110.105 25.875 110.93C25.875 114.988 25.875 121.567 25.875 121.567" stroke="currentColor" stroke-width="4" stroke-miterlimit="2" stroke-linecap="round" stroke-linejoin="round"/>
<path d="M75.4688 121.567V110.93C75.4688 110.105 75.7965 109.311 76.383 108.727C76.9673 108.14 77.7608 107.812 78.5867 107.812C85.5082 107.812 102.086 107.812 109.007 107.812C109.833 107.812 110.626 108.14 111.211 108.727C111.797 109.311 112.125 110.105 112.125 110.93C112.125 114.988 112.125 121.567 112.125 121.567" stroke="currentColor" stroke-width="4" stroke-miterlimit="2" stroke-linecap="round" stroke-linejoin="round"/>
<path d="M60.375 107.812V95.9725C60.375 90.7134 58.2188 85.6851 54.4087 82.0582C49.4773 77.3641 42.601 70.8199 38.2583 66.6842C35.9598 64.4977 32.3394 64.543 30.0969 66.7855L30.0926 66.7898C27.7639 69.1186 27.7639 72.8963 30.0926 75.2251C34.2068 79.3414 39.854 84.9864 39.854 84.9864" stroke="currentColor" stroke-width="4" stroke-miterlimit="2" stroke-linecap="round" stroke-linejoin="round"/>
<path d="M77.625 107.812V95.9725C77.625 90.7134 79.7812 85.6851 83.5913 82.0582C88.5227 77.3641 95.399 70.8199 99.7417 66.6842C102.04 64.4977 105.661 64.543 107.903 66.7855L107.907 66.7898C110.236 69.1186 110.236 72.8963 107.907 75.2251C103.793 79.3414 98.146 84.9864 98.146 84.9864" stroke="currentColor" stroke-width="4" stroke-miterlimit="2" stroke-linecap="round" stroke-linejoin="round"/>
<path d="M47.8469 11.0625C45.0414 11.0625 42.4492 12.4652 40.8906 14.8031L35.05 23.5312C34.3609 24.5648 34 25.7625 34 27.0094V40.9219C34 42.8414 35.2879 44.523 37.15 44.9906L42.5969 46.3687C43.3844 50.1832 46.7641 53.0625 50.8 53.0625C54.6883 53.0625 57.9367 50.3719 58.8719 46.7625H78.4281C79.3633 50.3719 82.6117 53.0625 86.5 53.0625C90.3883 53.0625 93.6367 50.3719 94.5719 46.7625H97C99.2969 46.7625 101.2 44.8594 101.2 42.5625V34.8844C101.2 31.0371 98.5668 27.6738 94.8344 26.7469L83.4813 23.8594L75.2781 14.0812C73.6785 12.1699 71.3406 11.0625 68.8469 11.0625H47.8469ZM47.8469 15.2625H57.1V23.6625H40.0375L44.3688 17.1656V17.1C45.148 15.927 46.4359 15.2625 47.8469 15.2625ZM61.3 15.2625H68.8469C70.0938 15.2625 71.2668 15.8121 72.0625 16.7719L77.8375 23.6625H61.3V15.2625ZM38.2 27.8625H82.0375L93.85 30.8156C95.7285 31.2832 97 32.9484 97 34.8844V42.5625H94.5719C93.6367 38.9531 90.3883 36.2625 86.5 36.2625C82.6117 36.2625 79.3633 38.9531 78.4281 42.5625H58.8719C57.9367 38.9531 54.6883 36.2625 50.8 36.2625C47.0758 36.2625 43.9504 38.7234 42.8594 42.1031L38.2 40.9219V27.8625ZM50.8 40.4625C53.1461 40.4625 55 42.3164 55 44.6625C55 47.0086 53.1461 48.8625 50.8 48.8625C48.4539 48.8625 46.6 47.0086 46.6 44.6625C46.6 42.3164 48.4539 40.4625 50.8 40.4625ZM86.5 40.4625C88.8461 40.4625 90.7 42.3164 90.7 44.6625C90.7 47.0086 88.8461 48.8625 86.5 48.8625C84.1539 48.8625 82.3 47.0086 82.3 44.6625C82.3 42.3164 84.1539 40.4625 86.5 40.4625Z" fill="currentColor"/>
</svg>
