<svg  xmlns="http://www.w3.org/2000/svg" xmlns:xlink="http://www.w3.org/1999/xlink" version="1.1" id="Layer_1" x="0px" y="0px" width="1em" height="1em" enable-background="new 0 0 1024 576" xml:space="preserve" viewBox="293.62 73.59 435.22 426.79">
<path fill="#FDD910" opacity="1.000000" stroke="none" d=" M436.885040,487.255005   C381.749573,466.347839 340.934631,429.968445 314.666901,377.573364   C298.638275,345.601715 291.723877,311.425323 294.069061,275.902649   C298.460297,209.387894 328.938812,156.808029 381.865753,116.829987   C410.373199,95.297043 442.480225,81.530464 477.553955,76.351822   C533.653381,68.068710 586.261047,78.155617 633.765442,110.618141   C663.042664,130.625000 686.805054,155.681396 703.611694,186.909515   C717.892090,213.443771 726.431702,241.824936 728.365967,272.069580   C732.477356,336.355530 709.971924,390.822876 665.755615,436.295380   C631.576965,471.445038 589.186707,491.689636 540.484253,498.284821   C505.201874,503.062683 470.737701,499.790588 436.885040,487.255005  M373.650452,437.846893   C423.857880,480.625580 481.608704,498.168518 546.845032,487.606628   C606.248840,477.989014 652.467468,446.941040 685.819763,396.974304   C713.831421,355.008575 724.493958,308.518219 717.451843,258.833893   C709.076050,199.739059 678.962585,152.824112 629.689026,119.767502   C578.193909,85.220497 520.990906,75.074875 460.588898,90.149300   C402.439392,104.661583 357.890564,138.277451 328.926208,191.127747   C303.755890,237.055252 297.556915,285.927399 310.479340,336.650696   C320.665955,376.635376 341.999481,410.170715 373.650452,437.846893  z"/>
<path fill="#FDD910" opacity="1.000000" stroke="none" d=" M568.342407,387.473724   C562.905151,377.143768 560.933838,366.587585 562.048279,355.279846   C565.374390,321.533295 605.257385,301.787292 637.447937,319.838928   C647.222290,325.320099 647.250244,325.270203 639.913269,333.698242   C634.016052,340.472382 634.125977,340.247681 625.986023,336.269073   C614.681030,330.743591 603.301697,330.786987 592.865967,338.207977   C583.114563,345.142365 579.776245,355.229065 581.614807,366.821747   C583.569214,379.145233 590.704956,387.559021 602.786438,390.824829   C614.272766,393.929688 625.281372,391.720825 635.338013,385.399933   C639.475830,382.799194 637.899048,378.469757 637.457764,374.889496   C637.085754,371.870361 634.012085,372.374603 631.737305,372.265015   C630.240967,372.192932 628.737610,372.192291 627.239929,372.240662   C624.589294,372.326202 623.406799,371.117706 623.072937,368.442413   C621.317810,354.377472 621.736694,353.837311 635.730286,353.810547   C641.061829,353.800323 646.394470,353.888214 651.724548,353.803955   C654.782349,353.755646 656.349365,354.820709 656.308411,358.138336   C656.179077,368.633392 656.201233,379.130371 656.169434,389.626587   C656.163635,391.543213 655.649048,393.233673 654.144714,394.535614   C636.651733,409.675415 617.301941,416.895020 594.227905,408.874481   C583.031433,404.982544 574.551941,397.923767 568.342407,387.473724  z"/>
<path fill="#FDD910" opacity="1.000000" stroke="none" d=" M580.088257,460.020386   C633.769836,438.317993 670.377930,400.471954 690.707214,346.747101   C700.059082,322.032379 703.217468,296.471008 701.307129,270.201996   C701.099609,267.348328 700.477600,264.280426 704.814636,263.939697   C708.750061,263.630524 710.946167,264.775146 711.234436,269.328125   C714.691772,323.926483 698.270874,371.952026 662.631042,413.112274   C629.363281,451.533020 587.173645,474.838043 536.651062,480.892334   C479.063110,487.793274 427.365845,472.995117 383.144958,434.538147   C382.893555,434.319489 382.578766,434.137085 382.410278,433.865387   C380.633331,430.999115 374.242828,429.829559 379.013062,424.545319   C382.788788,420.362762 383.173004,420.427856 389.406891,425.827148   C412.055115,445.442902 437.556030,459.802612 466.840454,466.732788   C505.069977,475.779816 542.786743,474.144562 580.088257,460.020386  z"/>
<path fill="#FDD910" opacity="1.000000" stroke="none" d=" M448.544922,264.279297   C438.581207,285.643890 421.271576,295.295593 398.910553,297.054230   C393.281952,297.496887 387.579895,296.967743 381.942108,297.343323   C377.129303,297.663971 375.987335,295.496765 376.008728,291.161652   C376.125366,267.525330 376.054291,243.888077 376.045807,220.251129   C376.043762,214.591690 375.993744,208.931870 376.048523,203.273026   C376.069733,201.079224 376.132843,198.682297 379.273804,198.691132   C392.522552,198.728394 405.839691,197.129623 418.792999,201.842331   C445.471252,211.548462 457.549500,238.120544 448.544922,264.279297  M431.558594,242.199158   C429.872864,233.754639 425.347351,227.254959 418.105713,222.640259   C412.902039,219.324219 407.013214,218.473877 401.036194,217.665344   C396.954895,217.113312 395.188232,218.107986 395.217560,222.488159   C395.327667,238.949158 395.295654,255.412277 395.139862,271.872925   C395.105408,275.511475 396.286011,276.783630 400.016449,276.807465   C420.164520,276.936035 432.903625,263.458710 431.558594,242.199158  z"/>
<path fill="#FDD910" opacity="1.000000" stroke="none" d=" M520.587097,198.142181   C522.549683,198.327454 524.411255,198.404266 524.667480,200.188370   C525.402283,205.306137 525.563171,210.500626 524.641296,215.594040   C524.208069,217.987656 521.739441,217.378021 520.004700,217.388077   C510.505463,217.443222 501.000519,217.610199 491.508453,217.346313   C486.549683,217.208450 484.752258,219.291016 484.416779,224.010727   C483.602997,235.459320 483.977692,235.999573 495.107574,235.989380   C502.440125,235.982666 509.773743,236.133896 517.104919,236.047714   C520.679565,236.005692 522.346130,237.409912 522.196472,241.072372   C522.060486,244.399841 522.046265,247.743530 522.207764,251.068924   C522.394592,254.913177 520.811890,256.426086 516.913574,256.359070   C507.917236,256.204376 498.914093,256.458008 489.917053,256.324188   C486.333679,256.270905 485.046844,257.454498 484.877747,261.194031   C484.183624,276.543396 484.053497,276.559692 499.122955,276.582825   C506.621735,276.594330 514.124939,276.640991 521.617493,276.402130   C524.822327,276.299988 526.272949,277.294342 526.185730,280.585815   C525.657227,300.520233 528.976318,296.802185 510.549530,297.109833   C497.220276,297.332367 483.884308,297.126312 470.552917,297.264923   C467.054108,297.301270 465.443359,296.368347 465.466675,292.471680   C465.641113,263.307831 465.753754,234.142197 465.574707,204.979034   C465.543030,199.819794 467.216614,198.488922 472.169983,198.525986   C488.155182,198.645615 504.143951,198.292343 520.587097,198.142181  z"/>
<path fill="#FDD910" opacity="1.000000" stroke="none" d=" M523.697510,92.100693   C554.739197,94.060532 583.556702,102.178658 610.086487,117.529663   C641.116638,135.484711 666.174805,159.592346 683.544373,191.248322   C684.949951,193.809891 686.992065,196.407059 682.914062,198.817230   C679.149170,201.042343 676.922852,200.020935 674.764893,196.540955   C665.348267,181.355804 655.036804,166.847015 641.856323,154.608704   C603.391296,118.893379 558.011230,101.442184 505.443390,103.010757   C460.759308,104.344078 421.809601,120.300667 387.773010,148.969238   C374.940216,159.778107 363.859375,172.120026 354.353729,185.892136   C352.285309,188.888916 350.428650,189.962570 347.059998,187.624222   C343.707886,185.297333 344.622955,183.159134 346.407562,180.515930   C367.576141,149.163605 395.939301,126.355087 430.055298,110.570267   C459.574524,96.912277 490.720337,90.932373 523.697510,92.100693  z"/>
<path fill="#FDD910" opacity="1.000000" stroke="none" d=" M540.405273,287.469788   C552.832275,258.861206 565.100952,230.600784 577.392090,202.350174   C578.385742,200.066345 579.263306,197.751312 582.559204,197.786194   C586.291626,197.825699 587.750061,200.214523 588.996277,203.086456   C599.073975,226.309845 609.177979,249.521820 619.234619,272.754303   C622.013489,279.174042 624.638977,285.660004 627.374878,292.098602   C628.963867,295.838074 627.663208,297.147919 623.739319,297.293945   C609.354431,297.829254 609.126648,298.008087 603.517151,284.428680   C600.968994,278.260162 597.633911,275.068542 590.494751,275.796478   C583.896545,276.469269 577.176514,276.042450 570.512756,275.934906   C567.232910,275.881989 565.278625,277.165070 564.097656,280.277588   C562.385742,284.789368 560.314880,289.164307 558.429260,293.611237   C557.758118,295.194031 557.017639,296.884277 555.102966,296.949799   C549.947327,297.126160 544.782715,297.167847 539.624634,297.083923   C537.551208,297.050201 537.255920,295.450745 537.808655,293.833496   C538.507263,291.789490 539.427856,289.821350 540.405273,287.469788  M580.531372,243.252426   C578.734314,247.398987 576.937195,251.545563 574.701233,256.704895   C579.580200,256.704895 583.168640,256.803680 586.748474,256.670319   C589.152893,256.580719 589.956360,254.954697 589.182434,252.872406   C587.860962,249.316895 586.430908,245.784348 584.765259,242.379745   C583.498901,239.791245 582.039734,240.595490 580.531372,243.252426  z"/>
<path fill="#FDD910" opacity="1.000000" stroke="none" d=" M505.324738,381.933746   C504.876038,396.669189 495.044617,407.839874 479.940552,411.022736   C464.547058,414.266632 450.530609,410.942749 437.867371,401.746826   C433.324249,398.447693 433.341339,397.467010 437.289398,393.274567   C439.457825,390.971893 441.610535,388.643341 443.608765,386.194641   C445.704437,383.626434 447.599701,383.255798 450.251312,385.622833   C457.160919,391.790833 465.527618,393.374878 474.484467,392.675964   C477.350311,392.452362 480.056305,391.614990 482.365417,389.834808   C487.390564,385.960846 486.908661,378.767487 481.341095,375.756287   C476.120941,372.933014 470.239105,372.380768 464.542267,371.215851   C454.692474,369.201843 445.426331,366.119476 440.092407,356.613800   C429.958221,338.553375 442.216064,316.404724 463.798920,313.790924   C475.854980,312.330872 486.918243,315.125305 497.090790,321.761292   C499.924164,323.609589 500.829773,325.402649 498.189270,328.042511   C497.366333,328.865204 496.550507,329.714569 495.859741,330.646820   C491.260925,336.853333 486.253693,340.307648 478.489594,335.015076   C474.679596,332.417938 469.813904,332.858887 465.324890,333.419647   C460.226166,334.056610 456.565643,337.739868 456.333313,342.022003   C456.113190,346.078979 459.083588,350.159882 463.857025,351.438232   C468.989227,352.812653 474.260193,353.670349 479.472900,354.742279   C483.572723,355.585388 487.465546,356.971008 491.232208,358.818695   C500.676788,363.451599 505.729980,370.746613 505.324738,381.933746  z"/>
<path fill="#FDD910" opacity="1.000000" stroke="none" d=" M355.154602,411.177673   C347.462128,410.881897 346.896973,410.289124 349.724243,403.586121   C361.691406,375.213776 373.851471,346.922760 385.829376,318.554871   C387.168915,315.382355 389.239258,314.643127 392.410004,314.534882   C395.953430,314.413940 397.431641,316.208527 398.611481,319.085205   C406.757477,338.947205 414.942078,358.793518 423.181244,378.617035   C426.630127,386.915070 430.271851,395.132782 433.759491,403.414978   C434.639221,405.504059 435.263367,407.700775 436.241547,410.533051   C429.700073,411.630493 423.783966,411.303406 417.896393,410.936707   C416.027527,410.820312 415.366791,408.964111 414.698669,407.425659   C412.908234,403.302795 411.079620,399.195465 409.364227,395.041443   C408.223022,392.277863 406.467194,390.910675 403.289642,390.975403   C394.966400,391.144958 386.636505,391.132019 378.311829,391.013977   C375.346771,390.971893 373.678192,392.230255 372.660400,394.876434   C371.705109,397.360107 370.302338,399.694855 369.552765,402.230011   C367.455963,409.321533 363.241791,412.838196 355.154602,411.177673  M387.314697,363.732208   C386.522858,366.173218 384.757446,368.340729 385.035187,371.612793   C389.555359,371.452209 393.905365,372.433289 398.634613,370.809021   C396.514435,365.523041 394.996124,360.416656 391.899780,355.745453   C389.310486,358.021790 388.664948,360.654572 387.314697,363.732208  z"/>
<path fill="#FDD910" opacity="1.000000" stroke="none" d=" M657.079712,214.017899   C657.156860,232.653336 657.215576,250.792313 657.314392,268.931091   C657.350586,275.570770 657.734680,275.914795 664.454163,275.947632   C673.606506,275.992340 682.759705,276.102020 691.911011,276.017120   C695.748413,275.981537 697.290771,277.605957 697.247314,281.402863   C697.040771,299.471466 699.933411,296.732971 682.850586,296.990204   C669.705933,297.188110 656.556458,297.089417 643.412964,297.329163   C639.411682,297.402191 637.681946,296.100586 637.694458,291.919006   C637.782532,262.463989 637.769531,233.008469 637.679565,203.553421   C637.668030,199.779648 638.997498,198.236404 642.876526,198.071457   C656.892517,197.475479 656.888184,197.373734 657.051208,211.524429   C657.058838,212.190094 657.068420,212.855713 657.079712,214.017899  z"/>
<path fill="#FDD910" opacity="1.000000" stroke="none" d=" M358.389709,258.000183   C358.387177,269.484955 358.245087,280.472382 358.452728,291.453186   C358.531738,295.632355 357.425018,297.484711 352.865082,297.344025   C337.952698,296.883820 339.901886,299.428619 339.832855,284.360168   C339.711609,257.897369 339.791779,231.433563 339.826721,204.970215   C339.835632,198.223923 340.216400,197.819748 346.840149,197.834869   C360.259033,197.865509 358.251282,196.330887 358.347900,209.067398   C358.470367,225.210846 358.385132,241.355865 358.389709,258.000183  z"/>
<path fill="#FDD910" opacity="1.000000" stroke="none" d=" M529.866150,401.939484   C529.923584,374.993256 529.967896,348.539154 530.039185,322.085144   C530.058838,314.782898 530.153442,314.656525 537.160217,314.759399   C550.016296,314.948151 548.236755,313.175934 548.271484,325.902039   C548.343201,352.189758 548.170349,378.478699 548.374512,404.765015   C548.413208,409.753754 546.958252,411.975769 541.873535,411.277893   C540.893677,411.143402 539.879639,411.255371 538.881348,411.258698   C529.879272,411.288757 529.879272,411.289062 529.866150,401.939484  z"/>
<path fill="#FDD910" opacity="1.000000" stroke="none" d=" M312.494263,277.551849   C312.796112,270.426727 313.597595,263.824707 314.635742,257.240448   C315.021362,254.794571 315.670349,252.925079 318.683289,253.647583   C321.333893,254.283218 324.686615,254.165176 324.277771,258.419434   C323.911987,262.225647 323.553192,266.032501 323.188232,269.838776   C320.300018,299.960480 325.539520,328.836426 336.545166,356.822357   C337.742645,359.867371 339.169342,362.661621 334.556641,364.403290   C330.853638,365.801514 328.758423,365.223206 327.135468,361.412628   C318.894684,342.063629 314.373505,321.855011 312.755066,300.950928   C312.163971,293.316254 311.428436,285.673889 312.494263,277.551849  z"/>
</svg>