<svg xml:space="preserve" viewBox="271.36 32.256 489.472 510.336" width="1em"   y="0px" x="0px" xmlns:xlink="http://www.w3.org/1999/xlink" xmlns="http://www.w3.org/2000/svg" id="Layer_1" version="1.1" style="max-height: 500px" height="1em">
<path d="M461.277039,506.656464 &#10;&#9;C560.212219,530.522644 662.789551,487.339355 714.607178,400.182434 &#10;&#9;C721.000122,389.429474 726.334473,378.115143 730.868408,366.458344 &#10;&#9;C732.417542,362.475525 734.796631,360.614075 739.101807,360.830994 &#10;&#9;C743.257080,361.040314 747.431702,360.910950 751.597046,360.861267 &#10;&#9;C755.850952,360.810577 756.839966,362.631073 755.308838,366.519958 &#10;&#9;C745.869995,390.492432 734.547485,413.447906 718.723450,433.932648 &#10;&#9;C680.840881,482.972626 632.025330,515.844177 571.329407,528.547058 &#10;&#9;C492.699707,545.003235 420.843506,528.657959 357.475464,478.436890 &#10;&#9;C319.954895,448.700653 294.207153,410.391022 276.957336,366.039886 &#10;&#9;C275.479065,362.239014 276.375000,360.693359 280.349457,360.749146 &#10;&#9;C280.515930,360.751495 280.682739,360.743713 280.849152,360.736328 &#10;&#9;C298.594757,359.949524 298.624847,359.935303 306.203552,375.955780 &#10;&#9;C326.573578,419.015503 355.960724,454.255035 396.670685,479.456970 &#10;&#9;C416.614105,491.803131 438.058716,500.881409 461.277039,506.656464 &#10;z" stroke="none" opacity="1.000000" fill="#fdd910"/>
<path d="M717.131592,193.837860 &#10;&#9;C700.892334,160.523911 679.340332,131.867142 650.250854,109.209862 &#10;&#9;C622.578308,87.656120 591.559326,73.308441 557.153748,66.344383 &#10;&#9;C531.318359,61.115036 505.280579,59.877773 479.112854,62.932232 &#10;&#9;C422.903168,69.493362 376.427185,95.124290 337.941315,135.930069 &#10;&#9;C323.075897,151.691559 311.722198,169.945160 302.497131,189.482544 &#10;&#9;C300.203186,194.340851 297.252350,196.838730 291.746643,196.321686 &#10;&#9;C288.278107,195.995987 284.751129,196.351196 281.254974,196.247116 &#10;&#9;C276.070587,196.092743 275.423553,195.056732 277.480377,190.112549 &#10;&#9;C284.350006,173.599640 292.736450,157.900436 303.112488,143.316345 &#10;&#9;C329.839325,105.750275 364.579620,78.053505 406.699677,59.500824 &#10;&#9;C455.178009,38.147518 505.543732,33.495548 557.303894,43.242859 &#10;&#9;C615.658020,54.231930 663.823242,83.209244 702.367310,128.023972 &#10;&#9;C722.343323,151.249756 736.161865,178.228256 746.641113,206.932220 &#10;&#9;C747.201172,208.466232 747.903320,210.012024 747.274963,212.253677 &#10;&#9;C740.744934,213.643173 733.994751,213.188583 727.264771,212.678207 &#10;&#9;C725.386963,212.535812 724.636719,210.807236 723.951843,209.259384 &#10;&#9;C721.728210,204.233917 719.513916,199.204346 717.131592,193.837860 &#10;z" stroke="none" opacity="1.000000" fill="#fdd910"/>
<path d="M434.175842,260.166656 &#10;&#9;C437.514587,280.362671 434.704620,298.945618 421.880646,314.850189 &#10;&#9;C409.826477,329.800110 393.494659,337.731171 374.620697,340.076660 &#10;&#9;C358.890533,342.031433 343.020172,340.825775 327.215637,341.187775 &#10;&#9;C321.806213,341.311646 321.023895,337.931763 321.024902,333.643585 &#10;&#9;C321.030945,308.166412 320.975739,282.689270 320.970306,257.212097 &#10;&#9;C320.967468,243.890488 320.999298,230.568741 321.064636,217.247299 &#10;&#9;C321.096771,210.700989 322.044952,209.636383 328.624542,209.760971 &#10;&#9;C344.589630,210.063202 360.572266,208.861160 376.523315,210.603333 &#10;&#9;C405.626709,213.782028 426.626831,231.625153 434.175842,260.166656 &#10;M387.020477,245.462158 &#10;&#9;C378.916534,238.790863 369.184662,239.178513 359.499023,238.715897 &#10;&#9;C354.724243,238.487839 352.877258,239.560577 352.876465,244.528183 &#10;&#9;C352.873596,262.508026 352.337006,280.489258 352.449402,298.467163 &#10;&#9;C352.540436,313.030457 350.432526,311.874298 365.882843,311.714478 &#10;&#9;C382.741791,311.540039 394.998444,302.988861 399.873962,288.186096 &#10;&#9;C405.003540,272.611969 400.075989,255.634506 387.020477,245.462158 &#10;z" stroke="none" opacity="1.000000" fill="#fdd910"/>
<path d="M515.975586,291.349365 &#10;&#9;C505.821045,291.413025 496.162872,291.552277 486.505737,291.498779 &#10;&#9;C482.836945,291.478485 480.797791,292.617188 481.035950,296.662445 &#10;&#9;C481.221741,299.817444 481.249786,303.001068 481.057556,306.154327 &#10;&#9;C480.794617,310.468414 482.639008,312.083099 486.922943,312.026398 &#10;&#9;C501.082611,311.839020 515.245300,311.866486 529.406860,311.842957 &#10;&#9;C536.959106,311.830414 537.183960,312.073273 537.227844,319.747742 &#10;&#9;C537.257446,324.912445 537.076660,330.084656 537.300476,335.240021 &#10;&#9;C537.479797,339.371399 535.623901,341.004272 531.707092,340.997253 &#10;&#9;C523.043579,340.981781 514.379944,341.048492 505.716370,341.059967 &#10;&#9;C488.888885,341.082245 472.061371,341.099792 455.233887,341.097534 &#10;&#9;C449.368164,341.096771 448.701508,340.475800 448.666809,334.441284 &#10;&#9;C448.441711,295.326050 448.241333,256.210693 448.069366,217.095215 &#10;&#9;C448.039734,210.354431 448.689880,209.768616 455.567169,209.759445 &#10;&#9;C479.059143,209.728165 502.551117,209.708740 526.043091,209.708557 &#10;&#9;C532.113098,209.708511 533.052856,210.619125 533.138367,216.602371 &#10;&#9;C533.214600,221.932968 533.235901,227.265610 533.185242,232.596436 &#10;&#9;C533.130127,238.394028 532.364319,239.133057 526.412598,239.134857 &#10;&#9;C513.916931,239.138611 501.421265,239.079422 488.925598,239.061966 &#10;&#9;C481.905762,239.052155 481.340179,239.485489 481.315094,246.244431 &#10;&#9;C481.245605,264.948730 480.166748,261.353485 496.202393,261.650787 &#10;&#9;C504.697052,261.808319 513.198120,261.843353 521.692444,261.704010 &#10;&#9;C526.119751,261.631378 527.536499,263.654877 527.392273,267.816467 &#10;&#9;C527.190369,273.640808 527.103943,279.489960 527.414185,285.304688 &#10;&#9;C527.656250,289.840332 526.118713,291.892548 521.467346,291.380768 &#10;&#9;C519.821106,291.199615 518.138428,291.349396 515.975586,291.349365 &#10;z" stroke="none" opacity="1.000000" fill="#fdd910"/>
<path d="M629.309814,327.622192 &#10;&#9;C626.231689,318.966553 626.231689,318.971313 617.632385,318.970093 &#10;&#9;C608.805542,318.968872 599.975342,319.097412 591.153564,318.881775 &#10;&#9;C587.557739,318.793854 585.562561,320.136108 584.490173,323.474060 &#10;&#9;C583.218323,327.432709 581.536682,331.265991 580.385986,335.255554 &#10;&#9;C579.190552,339.400055 576.812134,341.253174 572.430603,341.153961 &#10;&#9;C564.940430,340.984314 557.442078,341.223114 549.948364,341.153656 &#10;&#9;C543.802368,341.096741 542.867188,339.637421 545.208496,333.786926 &#10;&#9;C555.101746,309.065643 565.062134,284.371216 574.958923,259.651398 &#10;&#9;C581.141541,244.208786 587.358765,228.778473 593.336548,213.256393 &#10;&#9;C595.170471,208.494568 598.198364,206.326767 603.187927,206.689514 &#10;&#9;C603.685242,206.725662 604.186890,206.706848 604.686523,206.706039 &#10;&#9;C615.309814,206.688705 615.355103,206.670044 619.300720,216.363327 &#10;&#9;C634.735413,254.282913 650.152222,292.209808 665.545349,330.146301 &#10;&#9;C669.747009,340.501343 669.403809,340.986450 658.429749,341.071747 &#10;&#9;C652.767456,341.115784 647.090637,340.861023 641.446289,341.187744 &#10;&#9;C636.295959,341.485901 633.223999,339.469604 631.817566,334.558380 &#10;&#9;C631.177979,332.324829 630.248474,330.174286 629.309814,327.622192 &#10;M596.843689,290.484314 &#10;&#9;C602.906616,293.768555 609.024536,291.767883 615.737671,291.444122 &#10;&#9;C612.952148,282.438263 610.047668,274.491882 605.844238,265.609558 &#10;&#9;C602.143188,274.438599 598.990173,281.905426 596.843689,290.484314 &#10;z" stroke="none" opacity="1.000000" fill="#fdd910"/>
<path d="M711.029602,289.000000 &#10;&#9;C711.002502,294.998627 711.205688,300.510559 710.885071,305.991882 &#10;&#9;C710.606079,310.761536 712.547363,312.648651 717.203430,312.609711 &#10;&#9;C731.865479,312.486969 746.534607,312.731903 761.188049,312.344482 &#10;&#9;C765.836304,312.221619 767.593445,313.429260 767.390869,318.083832 &#10;&#9;C767.152039,323.571930 767.068604,329.098572 767.445068,334.572235 &#10;&#9;C767.785156,339.516602 765.718811,340.972107 761.084351,340.953918 &#10;&#9;C739.922729,340.870850 718.760254,340.994965 697.598083,341.047119 &#10;&#9;C693.099182,341.058228 688.598633,341.011810 684.101746,341.115875 &#10;&#9;C679.775696,341.216003 677.744324,339.449402 677.750610,334.891876 &#10;&#9;C677.805542,295.066589 677.768433,255.241089 677.688049,215.415787 &#10;&#9;C677.679810,211.378876 679.375366,209.671173 683.388977,209.740005 &#10;&#9;C690.218933,209.857132 697.052368,209.746353 703.884277,209.770889 &#10;&#9;C710.223938,209.793671 711.050537,210.585327 711.055298,217.016037 &#10;&#9;C711.072937,240.843994 711.043884,264.671997 711.029602,289.000000 &#10;z" stroke="none" opacity="1.000000" fill="#fdd910"/>
<path d="M441.320435,483.773254 &#10;&#9;C402.623871,468.898163 371.365265,444.799316 346.783386,412.033234 &#10;&#9;C340.380280,403.498291 334.001556,394.841980 329.480713,384.896729 &#10;&#9;C337.401398,382.270264 339.985962,383.135223 343.629578,389.056213 &#10;&#9;C375.830292,441.383118 422.085449,473.879303 482.579224,484.154266 &#10;&#9;C532.646729,492.658325 579.994629,483.151215 623.445557,456.258759 &#10;&#9;C646.083984,442.247467 665.483521,424.678345 680.855103,402.842957 &#10;&#9;C684.015381,398.353699 686.875732,393.648071 689.764771,388.974487 &#10;&#9;C693.293823,383.265564 697.292236,381.882904 705.125183,384.657928 &#10;&#9;C678.714478,431.124359 641.455994,464.584991 591.642151,483.487244 &#10;&#9;C541.823547,502.391296 491.719788,501.901215 441.320435,483.773254 &#10;z" stroke="none" opacity="1.000000" fill="#fdd910"/>
<path d="M343.310547,172.500519 &#10;&#9;C339.105804,176.020935 334.903168,175.394485 329.614014,173.802750 &#10;&#9;C342.760376,152.602478 359.008850,135.201462 378.176666,120.628242 &#10;&#9;C421.023285,88.052078 469.616913,73.431000 523.205383,77.000755 &#10;&#9;C572.914185,80.312080 616.387329,99.272614 653.398376,132.695114 &#10;&#9;C668.210510,146.071106 684.297180,167.068130 685.194336,173.533035 &#10;&#9;C677.425110,175.694534 674.772888,174.875046 670.758728,169.116623 &#10;&#9;C653.166565,143.880615 630.515076,124.495415 603.246704,110.328270 &#10;&#9;C573.863342,95.062309 542.611145,87.083138 509.580658,87.462067 &#10;&#9;C441.608398,88.241875 386.599762,115.441376 345.369202,169.824112 &#10;&#9;C344.765869,170.619919 344.164612,171.417267 343.310547,172.500519 &#10;z" stroke="none" opacity="1.000000" fill="#fdd910"/>
<path d="M270.907898,220.078400 &#10;&#9;C270.905884,218.425171 270.988861,217.251953 270.884155,216.095734 &#10;&#9;C270.483276,211.670334 272.315399,209.636063 276.899658,209.750900 &#10;&#9;C283.887756,209.925980 290.885132,209.889145 297.875275,209.761154 &#10;&#9;C301.597656,209.693008 303.355621,211.028259 303.349304,214.974228 &#10;&#9;C303.284912,255.264297 303.287292,295.554565 303.351349,335.844635 &#10;&#9;C303.357086,339.464966 301.830200,341.059845 298.326935,341.052490 &#10;&#9;C291.001770,341.037079 283.676453,341.022919 276.351349,341.047089 &#10;&#9;C271.356659,341.063538 270.990234,337.802612 270.991119,333.945007 &#10;&#9;C270.999908,296.152069 270.944153,258.359131 270.907898,220.078400 &#10;z" stroke="none" opacity="1.000000" fill="#fdd910"/>
<path d="M503.899414,429.033722 &#10;&#9;C492.585815,429.078766 481.755219,429.018311 470.929199,429.212036 &#10;&#9;C466.549164,429.290405 464.611908,427.819061 464.642242,423.155090 &#10;&#9;C464.770111,403.497559 464.715149,383.837738 464.544373,364.180298 &#10;&#9;C464.508789,360.081360 465.965302,358.555176 470.074036,358.598877 &#10;&#9;C482.566742,358.731659 495.063263,358.674744 507.556091,358.515808 &#10;&#9;C510.971741,358.472351 512.295227,359.691254 512.401917,363.135620 &#10;&#9;C512.715942,373.272766 512.791870,373.291595 502.427917,373.279938 &#10;&#9;C497.429993,373.274353 492.426361,373.437683 487.435699,373.249420 &#10;&#9;C482.114594,373.048676 482.299866,376.456238 482.194641,380.198151 &#10;&#9;C482.088623,383.970184 482.820465,386.290771 487.313721,386.063660 &#10;&#9;C491.964569,385.828583 496.640259,386.001038 501.302795,386.101898 &#10;&#9;C508.202911,386.251129 505.948120,391.563721 506.359222,395.303162 &#10;&#9;C506.813538,399.436035 504.417297,400.406677 500.831085,400.296051 &#10;&#9;C496.170715,400.152374 491.499481,400.360870 486.839020,400.218170 &#10;&#9;C483.392517,400.112579 481.919769,401.614868 482.130768,404.988007 &#10;&#9;C482.203461,406.149811 482.268341,407.334320 482.128937,408.483215 &#10;&#9;C481.579315,413.012360 483.814209,414.290405 487.988892,414.130310 &#10;&#9;C494.477844,413.881470 500.982269,414.068848 507.476898,413.925415 &#10;&#9;C511.649170,413.833252 513.787476,415.463287 513.324097,419.848663 &#10;&#9;C513.219666,420.837067 513.199768,421.861420 513.332886,422.843201 &#10;&#9;C513.957336,427.448090 511.852234,429.336548 507.382324,429.019165 &#10;&#9;C506.388245,428.948608 505.383911,429.022827 503.899414,429.033722 &#10;z" stroke="none" opacity="1.000000" fill="#fdd910"/>
<path d="M539.797485,358.482544 &#10;&#9;C550.427185,356.028381 560.032776,357.403137 568.649475,363.628113 &#10;&#9;C573.387634,367.051086 573.455017,368.770538 569.710022,373.179047 &#10;&#9;C568.849060,374.192566 568.054138,375.261932 567.213501,376.293091 &#10;&#9;C564.884766,379.149750 562.546753,379.599487 559.703857,376.767303 &#10;&#9;C556.084473,373.161652 551.585999,371.645142 546.473328,372.305725 &#10;&#9;C544.056091,372.618073 541.894958,373.462799 541.320251,376.228821 &#10;&#9;C540.761658,378.917664 542.103455,380.639099 544.292603,381.968445 &#10;&#9;C548.745422,384.672302 553.855896,385.791290 558.527527,387.969238 &#10;&#9;C571.442993,393.990692 576.012817,403.264069 571.865417,415.159882 &#10;&#9;C568.654785,424.368866 558.087097,430.539490 545.933655,430.036987 &#10;&#9;C537.949768,429.706848 530.455261,427.699219 524.398132,422.084900 &#10;&#9;C520.231934,418.223328 520.666931,416.469635 525.904175,410.458466 &#10;&#9;C529.111023,406.777771 531.875671,406.932770 535.023865,410.300568 &#10;&#9;C539.024353,414.580170 544.144043,415.479645 549.684631,414.865509 &#10;&#9;C552.533386,414.549774 554.890625,413.349365 555.581299,410.343140 &#10;&#9;C556.236084,407.493225 554.557861,405.589539 552.347229,404.144104 &#10;&#9;C548.394653,401.559723 543.798645,400.498627 539.446594,398.881805 &#10;&#9;C530.443115,395.536896 524.282715,389.890991 523.833801,379.709839 &#10;&#9;C523.384521,369.518250 528.564453,362.643921 539.797485,358.482544 &#10;z" stroke="none" opacity="1.000000" fill="#fdd910"/>
<path d="M601.892578,384.061279 &#10;&#9;C601.693054,372.606232 603.191711,373.278259 591.728455,373.280334 &#10;&#9;C591.063049,373.280457 590.397583,373.282684 589.732178,373.280609 &#10;&#9;C581.559570,373.255188 578.983215,369.745789 581.103760,361.714569 &#10;&#9;C581.745789,359.283203 583.369629,358.677094 585.562073,358.653473 &#10;&#9;C601.858276,358.478088 618.154053,358.201538 634.450500,358.152618 &#10;&#9;C639.866577,358.136353 640.171875,359.088226 640.328125,366.569000 &#10;&#9;C640.420532,370.991516 639.348877,373.784637 634.265686,373.266388 &#10;&#9;C633.607605,373.199310 632.935852,373.265442 632.270447,373.271515 &#10;&#9;C619.263855,373.390625 619.262390,373.390686 619.257263,386.656799 &#10;&#9;C619.252502,398.800873 619.116028,410.947235 619.318298,423.087891 &#10;&#9;C619.394592,427.661469 617.650879,429.198700 613.162659,429.210327 &#10;&#9;C602.067017,429.239136 602.067810,429.399841 602.026367,418.486237 &#10;&#9;C601.983459,407.174133 601.939758,395.862030 601.892578,384.061279 &#10;z" stroke="none" opacity="1.000000" fill="#fdd910"/>
<path d="M433.038483,416.918213 &#10;&#9;C433.037292,418.237701 433.045685,419.070984 433.037292,419.904053 &#10;&#9;C432.947754,428.799744 432.642395,429.099335 423.667023,429.119537 &#10;&#9;C415.946655,429.136871 415.759033,428.928314 415.698059,421.387817 &#10;&#9;C415.583557,407.227722 415.378845,393.068115 415.334167,378.907898 &#10;&#9;C415.320953,374.718597 413.760834,372.717102 409.351227,373.247192 &#10;&#9;C407.216248,373.503815 405.024170,373.280609 402.857941,373.282776 &#10;&#9;C395.350769,373.290253 392.233826,368.937469 394.303040,361.512512 &#10;&#9;C395.084351,358.708893 397.170410,358.657043 399.401550,358.653748 &#10;&#9;C409.899292,358.638275 420.397369,358.667664 430.894592,358.584076 &#10;&#9;C436.388306,358.540314 441.880859,358.310760 447.373108,358.138824 &#10;&#9;C451.454102,358.011108 453.728027,359.600494 453.299896,364.039734 &#10;&#9;C453.140564,365.691956 453.235138,367.369629 453.232452,369.035767 &#10;&#9;C453.227753,371.944397 451.718353,373.280304 448.874603,373.269470 &#10;&#9;C445.708679,373.257416 442.524231,373.480408 439.381104,373.211792 &#10;&#9;C434.663971,372.808685 432.835968,374.585815 432.933929,379.441315 &#10;&#9;C433.182648,391.767181 433.031403,404.101166 433.038483,416.918213 &#10;z" stroke="none" opacity="1.000000" fill="#fdd910"/>
</svg>