<svg width="1em" height="1em" viewBox="0 0 18 18" fill="none" xmlns="http://www.w3.org/2000/svg">
<g clip-path="url(#clip0_2020_3614)">
<path d="M1.36961 1.36508L2.15711 0.682578C3.06461 -0.224922 4.53461 -0.224922 5.44211 0.682578C5.46461 0.705078 6.85211 2.51258 6.85211 2.51258C7.70711 3.41258 7.70711 4.83008 6.85211 5.72258L5.98211 6.81758C7.07711 9.30008 8.77961 11.0101 11.1796 12.0301L12.2746 11.1526C13.1671 10.2901 14.5921 10.2901 15.4846 11.1526C15.4846 11.1526 17.2921 12.5401 17.3146 12.5626C18.2221 13.4701 18.2221 14.9401 17.3521 15.8101L16.6021 16.6726C15.7396 17.5351 14.5771 18.0076 13.3171 18.0076C7.58711 18.0076 -0.00288773 10.4101 -0.00288773 4.68758C-0.00288773 3.43508 0.469612 2.26508 1.36961 1.37258V1.36508ZM13.3171 16.5001C14.1721 16.5001 14.9596 16.1851 15.4996 15.6376L16.2496 14.7751C16.5571 14.4676 16.5721 13.9651 16.2796 13.6426C16.2796 13.6426 14.4871 12.2626 14.4646 12.2401C14.1571 11.9326 13.6171 11.9326 13.3021 12.2401C13.2796 12.2626 11.7721 13.4701 11.7721 13.4701C11.5621 13.6351 11.2846 13.6801 11.0371 13.5826C7.93211 12.3976 5.70461 10.1776 4.42211 6.97508C4.32461 6.72758 4.36211 6.44258 4.53461 6.22508C4.53461 6.22508 5.74211 4.71008 5.75711 4.69508C6.07961 4.37258 6.07961 3.85508 5.75711 3.53258C5.73461 3.51008 4.35461 1.71758 4.35461 1.71758C4.03211 1.42508 3.52961 1.43258 3.18461 1.77758L2.39711 2.46008C1.81961 3.03758 1.49711 3.82508 1.49711 4.68008C1.49711 9.90008 8.82461 16.5001 13.3171 16.5001Z" fill="currentColor"/>
</g>
<defs>
<clipPath id="clip0_2020_3614">
<rect width="1em" height="1em" fill="white"/>
</clipPath>
</defs>
</svg>
